<svg xmlns="http://www.w3.org/2000/svg" viewBox="0 0 1917 1755"><style>.st0{fill:#06abad}.st1{fill:#ac0001}.st3{fill:#009090}.st5{fill:#ff0}.st7{fill:#7473c0}.st8{fill:#6060a1}.st10{fill:#900000}.st11{fill:#ca83fb}.st14{fill:#72c1ff}.st25{fill:#969cff}.st28{fill:#ec7ed1}.st31{fill:#8dd4bb}.st32{fill:#a388f0}.st33{fill:#f48cc7}</style><path d="M0 0h1917v1755H0z" id="Layer_3"/><g id="art"><path class="st0" d="M207 1125h18v18h-18zm0-27h18v18h-18zm108-27h18v18h-18zm0-27h18v18h-18z"/><path class="st1" d="M396 1071h18v18h-18z"/><path d="M45 990h18v18H45zm0 27h18v18H45zm0 27h18v18H45zm54-135h18v18H99zm0 27h18v18H99zm0 27h18v18H99zm-81 81h18v18H18zm0 27h18v18H18zm27 0h18v18H45zm-27 27h18v18H18zm0 27h18v18H18zm27-27h18v18H45zm0 27h18v18H45zm243-135h18v18h-18zm-27 0h18v18h-18zm27 27h18v18h-18zm0 27h18v18h-18zm0 27h18v18h-18zm0 27h18v18h-18zm-216 0h18v18H72zm0 27h18v18H72zm27 0h18v18H99zm27 0h18v18h-18zm27 0h18v18h-18zm-27-27h18v18h-18zm27 0h18v18h-18zm-27-27h18v18h-18zm27 0h18v18h-18zm27 0h18v18h-18zm27 0h18v18h-18zm0-54h18v18h-18zm27 0h18v18h-18zm-27-27h18v18h-18zm27 0h18v18h-18zm-27-27h18v18h-18zm0-27h18v18h-18zm0-27h18v18h-18zm27 54h18v18h-18zm27 54h18v18h-18zM126 909h18v18h-18zm27 0h18v18h-18zm27 0h18v18h-18zm-54 54h18v18h-18zm27 0h18v18h-18zm27 0h18v18h-18zm0 162h18v18h-18zm54 0h18v18h-18zm27 0h18v18h-18zm27 0h18v18h-18zm-27 54h18v18h-18zm27 0h18v18h-18zm27-54h18v18h-18zm0-27h18v18h-18zm27 0h18v18h-18zm0-27h18v18h-18zm27 0h18v18h-18zm0 27h18v18h-18zm27 0h18v18h-18zm27 0h18v18h-18zm-108-81h18v18h-18zm27 0h18v18h-18zm27 0h18v18h-18zm27 0h18v18h-18zm27 0h18v18h-18zm-54-27h18v18h-18zm54 0h18v18h-18zm-54-27h18v18h-18zm54 0h18v18h-18zm-54-27h18v18h-18zm0-27h18v18h-18zm0-27h18v18h-18zm54 54h18v18h-18zm0 135h18v18h-18zm-108 81h18v18h-18zm27 0h18v18h-18zm0 27h18v18h-18zm0 27h18v18h-18zm0 27h18v18h-18zm0 27h18v18h-18zm0 27h18v18h-18zm0 27h18v18h-18zm-27 0h18v18h-18zm0-27h18v18h-18zm-27 27h18v18h-18zm0-27h18v18h-18zm0-27h18v18h-18zm0-27h18v18h-18zm-27 27h18v18h-18zm0-27h18v18h-18zm54-54h18v18h-18zm54 0h18v18h-18zm27 0h18v18h-18zm27 0h18v18h-18zm-54 81h18v18h-18zm27 0h18v18h-18zm27 0h18v18h-18zm-54 54h18v18h-18zm27 0h18v18h-18zm27 0h18v18h-18z" fill="#a81367"/><path class="st3" d="M315 1062h18v9h-18zm-108 54h18v9h-18z"/><path d="M306 1260v-9h-18v-18h-9v18h-18v9h18v18h9v-18zm-135-171h-18v-18h-9v18h-18v9h18v18h9v-18h18zm-135 0h9v-18h18v-9H45v-18h-9v18H18v9h18zm279 198h-9v18h-18v9h18v18h9v-18h18v-9h-18zM72 1098h-9v18H45v-18h-9v18H18v9h18v18h9v-18h18v18h9v-18h18v-9H72zm-27-90h18v9H45zm99 117h9v18h-9zm27 0h9v18h-9zm81 0h9v18h-9zm-54-54h9v18h-9zM99 954h18v9H99zm0-27h18v9H99zm45-18h9v18h-9zm27 0h9v18h-9zm36 18h18v9h-18zm-63 36h9v18h-9zm27 0h9v18h-9zm81 18h-18v-18h-9v18h-18v9h18v18h9v-18h18zm-27 36h9v18h-9zm27 0h9v18h-9zm36-9h18v9h-18zm0 27h18v9h-18zm0 27h18v9h-18zm0 27h18v9h-18zm0 27h18v9h-18zm27 27h18v9h-18zm-36 36h9v18h-9zm27 0h9v18h-9zm81 0h9v18h-9zm27 0h9v18h-9zm-72-9h18v9h-18zm0 27h18v9h-18zm0 27h18v9h-18zm0 27h18v9h-18zm0 27h18v9h-18zm45-18h9v18h-9zm27 0h9v18h-9zm-54 54h9v18h-9zm27 0h9v18h-9zm36-225h18v9h-18zm-36 9h9v18h-9zm-45-9h18v9h-18zm-9-72h9v18h-9zm27 0h9v18h-9zm27 0h9v18h-9zm27 0h9v18h-9zm9-63h18v9h-18zm-54 0h18v9h-18zm0-54h18v9h-18z" fill="#7a104c"/><path class="st5" d="M369 927h18v9h-18zm54 54h18v9h-18zm0 27h18v9h-18zm-54 0h18v9h-18zm0-27h18v9h-18zm-63 36h9v18h-9zm-27 0h9v18h-9zm0-27h9v18h-9zm-27 0h9v18h-9zm-45-36h18v9h-18zm-90-45h9v18h-9zm0 54h9v18h-9zm81 0h9v18h-9zm-153 72h18v9H45zm-27 54h18v9H18zm72 36h9v18h-9zm27 0h9v18h-9zm9-9h18v9h-18zm45-45h9v18h-9zm27 54h9v18h-9zm27 0h9v18h-9zm54 0h9v18h-9zm27 0h9v18h-9zm0-27h9v18h-9zm27-27h9v18h-9zm0 27h9v18h-9zm27 0h9v18h-9zm0-27h9v18h-9zm27 0h9v18h-9zm27 0h9v18h-9zm0 27h9v18h-9zm-81 54h9v18h-9zm0 27h9v18h-9zm27 0h9v18h-9zm0 81h9v18h-9zm-18 45h18v9h-18zm-9 9h9v18h-9zm81 0h9v18h-9zm9 18h18v9h-18zm18-153h9v18h-9zm0 81h9v18h-9z"/><path class="st1" d="M666 1422h18v18h-18zm27 0h18v18h-18z"/><path d="M423 1341h18v18h-18zm0 27h18v18h-18zm0 27h18v18h-18zm0 27h18v18h-18zm216 27h18v18h-18zm0 27h18v18h-18zm0 27h18v18h-18zm0 27h18v18h-18zm-81-81h18v18h-18zm0 27h18v18h-18zm0 27h18v18h-18zm0 27h18v18h-18zm-54 27h18v18h-18zm0 27h18v18h-18zm0 27h18v18h-18zm27 0h18v18h-18zm-27 27h18v18h-18zm0 27h18v18h-18zm-27-108h18v18h-18zm0-27h18v18h-18zm-27 0h18v18h-18zm27-27h18v18h-18zm0-27h18v18h-18zm0 108h18v18h-18zm0 27h18v18h-18zm0 27h18v18h-18zm0 27h18v18h-18zm-54-135h18v18h-18zm0-27h18v18h-18zm0-27h18v18h-18zm0-27h18v18h-18zm0 108h18v18h-18zm0 27h18v18h-18zm0 27h18v18h-18zm0 27h18v18h-18zm297-135h18v18h-18zm0 27h18v18h-18zm0 27h18v18h-18zm-270-135h18v18h-18zm27 0h18v18h-18zm0-27h18v18h-18zm0-27h18v18h-18zm27 27h18v18h-18zm0-27h18v18h-18zm27 27h18v18h-18zm0-27h18v18h-18zm27 27h18v18h-18zm0-27h18v18h-18zm27 27h18v18h-18zm0-27h18v18h-18zm27 216h18v18h-18zm0-27h18v18h-18zm27 27h18v18h-18zm0-27h18v18h-18zm81 54h18v18h-18zm0-27h18v18h-18zm27 27h18v18h-18zm-27 27h18v18h-18zm27 0h18v18h-18zm27 0h18v18h-18zm-27 27h18v18h-18zm27 0h18v18h-18zm0 27h18v18h-18zm-27-108h18v18h-18zm27 27h18v18h-18zm0-27h18v18h-18zm54 54h18v18h-18zm0 27h18v18h-18zm27 0h18v18h-18zm-27-54h18v18h-18zm27 27h18v18h-18zm0-27h18v18h-18zm81 54h18v18h-18zm0-27h18v18h-18zm27 54h18v18h-18zm0-27h18v18h-18zm-27-54h18v18h-18zm-54 0h18v18h-18zm0-27h18v18h-18zm27 27h18v18h-18zm0-27h18v18h-18zm27 0h18v18h-18zm0-27h18v18h-18zm27 27h18v18h-18zm0-27h18v18h-18zm-162 54h18v18h-18zm27 81h18v18h-18zm27 0h18v18h-18zm27 0h18v18h-18zm27 0h18v18h-18zm-108 0h18v18h-18zm0-108h18v18h-18zm-135 0h18v18h-18zm-108 27h18v18h-18zm27 0h18v18h-18zm27 0h18v18h-18zm-54 27h18v18h-18zm0 27h18v18h-18zm0 27h18v18h-18zm-27 0h18v18h-18zm0 27h18v18h-18zm-27 0h18v18h-18zm81-81h18v18h-18zm27 0h18v18h-18zm27 0h18v18h-18zm27 0h18v18h-18zm27 0h18v18h-18zm-27-81h18v18h-18zm54-216h18v18h-18zm27 0h18v18h-18zm-27 54h18v18h-18zm27 0h18v18h-18zm-27 81h18v18h-18zm27 0h18v18h-18zm-81-27h18v18h-18zm27 0h18v18h-18zm-27 27h18v18h-18zm27 0h18v18h-18zm-27 27h18v18h-18zm27 0h18v18h-18zm81-162h18v18h-18zm-270 81h18v18h-18zm-189 108h18v18h-18zm27 0h18v18h-18zm27 0h18v18h-18zm27 0h18v18h-18zm-27 54h18v18h-18zm27 0h18v18h-18zm0 54h18v18h-18zm135-216h18v18h-18zm-27 54h18v18h-18zm27 0h18v18h-18zm27-54h18v18h-18zm27 0h18v18h-18zm108-54h18v18h-18zm0-27h18v18h-18zm0 54h18v18h-18zm54 27h18v18h-18zm0 27h18v18h-18zm-108-27h18v18h-18z" fill="#6c0aaf"/><path class="st0" d="M396 1341h18v18h-18zm0 27h18v18h-18z"/><path class="st3" d="M396 1359h18v9h-18z"/><path class="st0" d="M612 1395h18v18h-18zm0 27h18v18h-18z"/><path class="st3" d="M612 1413h18v9h-18z"/><path class="st0" d="M585 1503h18v18h-18zm0 27h18v18h-18z"/><path class="st3" d="M585 1521h18v9h-18z"/><path class="st7" d="M531 1530h18v18h-18zm0 27h18v18h-18z"/><path class="st8" d="M531 1548h18v9h-18z"/><path class="st0" d="M693 1584h18v18h-18zm0 27h18v18h-18z"/><path class="st3" d="M693 1602h18v9h-18z"/><path class="st0" d="M855 1557h18v18h-18zm0 27h18v18h-18z"/><path class="st3" d="M855 1575h18v9h-18z"/><path class="st5" d="M414 1368h9v18h-9zm81 0h9v18h-9zm-18 45h18v9h-18zm-36 9h9v18h-9zm144-9h18v9h-18zm-63 9h9v18h-9zm108 0h9v18h-9zm27 0h9v18h-9zm36 18h18v9h-18zm18-99h9v18h-9zm0 54h9v18h-9zm36 18h18v9h-18zm0 54h18v9h-18zm-27 27h18v9h-18zm-9-18h9v18h-9zm-72-36h18v9h-18zm0 108h18v9h-18zm-27 54h18v9h-18zm108-27h18v9h-18zm-9 36h9v18h-9zm-135-81h9v18h-9zm-27 0h9v18h-9zm-27 27h9v18h-9zm-27 0h9v18h-9zm0-81h9v18h-9zm54 0h9v18h-9zm9-36h18v9h-18zm-36 279h9v18h-9zm27-27h9v18h-9zm9-36h18v9h-18zm0-27h18v9h-18zm-9-18h9v18h-9zm-27 0h9v18h-9zm-18 45h18v9h-18zm-9 9h9v18h-9zm-27-135h9v18h-9zm-27 0h9v18h-9zm-27 0h9v18h-9zm0 54h9v18h-9zm0 54h9v18h-9zm459-54h9v18h-9zm0 27h9v18h-9zm54-27h9v18h-9zm0 27h9v18h-9zm27 54h9v18h-9zm27 27h9v18h-9zm-81 0h9v18h-9zm-108 0h9v18h-9zm27-81h9v18h-9zm-54-27h9v18h-9zm-54 54h9v18h-9zm-81 0h9v18h-9zm117 18h18v9h-18zm18 9h9v18h-9zm9-36h18v9h-18z"/><path d="M963 1575v-18h-9v18h-18v9h18v18h9v-18h18v-9zm-54 9h-9v18h-18v9h18v18h9v-18h18v-9h-18zm27 45h18v9h-18zm0 27h18v9h-18zm27 27h18v9h-18zm-90 9h9v18h-9zm-27 0h9v18h-9zm-27 0h9v18h-9zm54-36h-18v-18h18v-9h-18v-18h-9v18h-18v9h18v18h-18v9h18v18h9v-18h18zm-99 27h18v9h-18zm45-81h-18v-18h-9v18h-18v9h18v18h9v-18h18zm-72-18h-9v18h-18v9h18v18h-18v9h18v18h9v-18h18v-9h-18v-18h18v-9h-18zm-63 54h9v18h-9zm-27 0h9v18h-9zm27-63h-18v-18h-9v18h-18v-18h-9v18h-18v9h18v18h9v-18h18v18h9v-18h18zm-108 36h9v18h-9zm27 0h9v18h-9zm-27 27h9v18h-9zm27 0h9v18h-9zm-45 45h18v9h-18zm-27 27h18v9h-18zm-27-135h18v9h-18zm0 27h18v9h-18zm-27-108h18v9h-18zm0 27h18v9h-18zm0 27h18v9h-18zm0 27h18v9h-18zm0 27h18v9h-18zm0 27h18v9h-18zm0 27h18v9h-18zm-54-27h18v9h-18zm0-27h18v9h-18zm0-27h18v9h-18zm0-27h18v9h-18zm0-27h18v9h-18zm0-27h18v9h-18zm0-27h18v9h-18zm0-27h18v9h-18zm0-27h18v9h-18zm0-27h18v9h-18zm0-27h18v9h-18zm-90 171h9v18h-9zm27 0h9v18h-9zm27 0h9v18h-9zm0 54h9v18h-9zm171-63h18v9h-18zm0-27h18v9h-18zm0-27h18v9h-18zm-36 9h9v18h-9zm27-54h9v18h-9zm27 0h9v18h-9zm-81 0h9v18h-9zm-27 0h9v18h-9zm9-36h18v9h-18zm126 0h-18v-18h-9v18h-18v-18h-9v18h-18v-18h-9v18h-18v9h18v18h9v-18h18v18h9v-18h18v18h9v-18h18zm135-45h9v18h-9zm27 0h9v18h-9zm-72 18h18v9h-18zm0 27h18v9h-18zm45 9h9v18h-9zm9 45h18v9h-18zm-9 36h9v18h-9zm-18 45h18v9h-18zm0 27h18v9h-18zm-81-27h18v9h-18zm0-27h18v9h-18zm0-27h18v9h-18zm54-18h-9v18h-18v9h18v18h-18v9h18v18h9v-18h18v-9h-18v-18h18v-9h-18z" fill="#4f0880"/><path class="st10" d="M684 1422h9v18h-9z"/><path class="st5" d="M693 1332h18v9h-18z"/><path class="st11" d="M477 1368h126v72h-27v90h9v-27h18v45h-54v27h-27v36h90v-54h27v-117h-27v-45h18v27h81v54h36v-63h-54v-81h-9v81h-45v-27h-27v-27H468v54h-18v-72h-9v81h36v-54zm126 234h-72v-18h27v-27h45v45zm117-180h18v45h-18v-45zm-90 27v99h-18v-54h-27v-45h45z"/><path class="st11" d="M495 1386v36h90v-9h-81v-27zm-18 144v-54h81v-36H441v90h36zm-27-81h99v18h-81v54h-18v-72z"/><path class="st11" d="M531 1530h27v-36h-63v63h36v-27zm-9 18h-18v-45h45v18h-27v27zm198 63v-117h-9v27h-45v-72h27v-9h-36v117h27v45h-54v27h-54v9h144v-9h-27v-45h18v27h9zm-36 18h-45v-18h45v18zm9-54v-27h-27v-18h45v45h-18zm-279-234h9v27h-9z"/><path class="st11" d="M963 1683h-27v-54h-63v54h-45v-54h-36v27h-18v-54h-9v63h27v27h135v18H774v-27h-27v-27H576v54h-27v27h-45v-18h27v-27h27v-63h-54v-54h-9v90h9v-27h18v45h-45v-135h-36v108h-45v-18h27v-36h-54v-18h54v-36H315v-18h108v-144h-27v-45h-9v54h27v126H306v36h108v18h-54v36h54v18h-27v36h63v-108h18v135h54v18h-27v36h63v-27h27v-54h153v27h27v27h171v-27h18v27h36v-9h-27v-27zm-144 0h-18v-45h18v45zm-288-45h18v45h-18v-45zm396 45h-45v-45h45v45z"/><path class="st11" d="M990 1611v-63h-63v27h-45v-27h-36v54h-18v-27h-81v-72h27v-117h-54v-18h81v-36h-90v9h81v18h-81v36h54v99h-27v90h81v27h63v-9h-27v-45h18v27h63v-27h45v45h-54v9h27v54h27v27h9v-36h-27v-45z"/><path class="st0" d="M639 1179h18v18h-18zm0-27h18v18h-18z"/><path class="st3" d="M639 1170h18v9h-18z"/><path class="st0" d="M693 801h18v18h-18zm0-27h18v18h-18z"/><path class="st3" d="M693 792h18v9h-18z"/><path class="st0" d="M558 936h18v18h-18zm0-27h18v18h-18z"/><path class="st3" d="M558 927h18v9h-18z"/><path class="st7" d="M504 936h18v18h-18zm0-27h18v18h-18z"/><path class="st8" d="M504 927h18v9h-18z"/><path class="st5" d="M693 1197h18v9h-18z"/><path d="M693 1179h18v18h-18zm27 0h18v18h-18zm27 0h18v18h-18zm-81 0h18v18h-18zm-54 0h18v18h-18zm0-27h18v18h-18zm0-27h18v18h-18zm54 27h18v18h-18zm0-27h18v18h-18zm-27 0h18v18h-18zm-27-27h18v18h-18zm27 0h18v18h-18zm-81 81h18v18h-18zm-27 0h18v18h-18zm54 0h18v18h-18zm-81 0h18v18h-18zm135-108h18v18h-18zm-27 0h18v18h-18zm54 0h18v18h-18zm-81 0h18v18h-18zm54-27h18v18h-18zm-27 0h18v18h-18zm54 0h18v18h-18zm-81 0h18v18h-18zm108-162h18v18h-18zm-27 0h18v18h-18zm-27 0h18v18h-18zm-189 297h18v18h-18zm27 0h18v18h-18zm189-81h18v18h-18zm0-81h18v18h-18zm-27 0h18v18h-18zm0-27h18v18h-18zm0-27h18v18h-18zm27 0h18v18h-18zm-27-27h18v18h-18zm27 0h18v18h-18zm-27-27h18v18h-18zm-108 243h18v18h-18zm0-27h18v18h-18zm0-27h18v18h-18zm0-27h18v18h-18zm0-162h18v18h-18zm0 135h18v18h-18zm0-27h18v18h-18zm0-27h18v18h-18zm0-27h18v18h-18zm0-27h18v18h-18zm0-81h18v18h-18zm0 27h18v18h-18zm135 27h18v18h-18zm27-216h18v18h-18zm-27 0h18v18h-18zm0 54h18v18h-18zm27 0h18v18h-18zm-27-27h18v18h-18zm27 0h18v18h-18zm-27 108h18v18h-18zm0-27h18v18h-18zm0 54h18v18h-18zm0 135h18v18h-18zm-27-162h18v18h-18zm-27 0h18v18h-18zm0-27h18v18h-18zm0-27h18v18h-18zm27 0h18v18h-18zm-27-27h18v18h-18zm27 0h18v18h-18zm-27-27h18v18h-18zm-27 81h18v18h-18zm0-27h18v18h-18zm0-27h18v18h-18zm-27 108h18v18h-18zm0-27h18v18h-18zm0-27h18v18h-18zm-54 81h18v18h-18zm0-27h18v18h-18zm0-27h18v18h-18zm81-108h18v18h-18zm0-27h18v18h-18zm54 27h18v18h-18z" fill="#015da5"/><path class="st1" d="M639 801h18v18h-18z"/><path class="st5" d="M738 1179h9v18h-9zm-216 0h9v18h-9zm27 0h9v18h-9zm108 0h9v18h-9zm-27-27h9v18h-9zm0 27h9v18h-9zm-27 0h9v18h-9zm27-54h9v18h-9zm27 0h9v18h-9zm0-27h9v18h-9zm9-9h18v9h-18zm0-54h18v9h-18zm-27 0h18v9h-18zm27-162h18v9h-18zm-27 27h18v9h-18zm27 27h18v9h-18zm-9 9h9v18h-9zm-135 0h9v18h-9zm27 0h9v18h-9zm-27-54h9v18h-9zm27-27h9v18h-9zm27-54h9v18h-9zm27 0h9v18h-9zm81 0h9v18h-9zm-18 18h18v9h-18zm-9-18h9v18h-9zm0-54h9v18h-9z"/><path d="M711 1179h9v18h-9zm-27 0h9v18h-9zm-72-9h18v9h-18zm0-27h18v9h-18zm54 0h18v9h-18zm0-27h18v9h-18zm-36-18h9v18h-9zm-54 81h9v18h-9zm-81 0h9v18h-9zm-27 0h9v18h-9zm36-333h18v9h-18zm0 27h18v9h-18zm27 0h18v9h-18zm0 27h18v9h-18zm0 27h18v9h-18zm0 27h18v9h-18zm0 27h18v9h-18zm0 27h18v9h-18zm0 27h18v9h-18zm0 27h18v9h-18zm0 27h18v9h-18zm0 27h18v9h-18zm0 27h18v9h-18zm0 27h18v9h-18zm135-81v-18h18v-9h-18v-18h-9v18h-18v-18h-9v18h-18v-18h-9v18h-18v9h18v18h9v-18h18v18h9v-18h18v18zm-27-81h18v9h-18zm0-27h18v9h-18zm0-27h18v9h-18zm27 0h18v9h-18zm0 27h18v9h-18zm0 27h18v9h-18zm-9-99h9v18h-9zm0-27h9v18h-9zm27 0h9v18h-9zm-18-36h18v9h-18zm45-108h-18v-18h18v-9h-18v-18h-9v18h-18v9h18v18h-18v9h18v18h9v-18h18zm-126 54h18v9h-18zm0-27h18v9h-18zm0-27h18v9h-18zm0-27h18v9h-18zm45 135h9v-18h18v-9h-18v-18h18v-9h-18v-18h18v-9h-18v-18h18v-9h-18v-18h-9v18h-18v9h18v18h-18v9h18v18h-18v9h18v18h-18v9h18zm-72-27h18v9h-18zm0 27h18v9h-18z" fill="#02487e"/><path class="st14" d="M576 819v54h-27v63h9v-27h18v45h-27v225h63v-54h54v-9h-54v-18h54v-9h-81v-45h54V936h27v-9h-27v-45h27v-63h-9v27h-45v-27h-36zm81 36v18h-27v162h-54v63h27v72h-45V963h27v-63h-27v-18h27v-54h18v27h54z"/><path class="st14" d="M657 954h9v90h-9zm-27 216h9v9h-9z"/><path class="st14" d="M693 1170V909h27v-36h-27v-45h27V684h-63v27h-45v-18h-9v108h9v-81h45v27h9v-54h45v72h-54v36h36v-27h18v45h-27v63h27v18h-54v9h27v261h-18v-27h-36v9h27v27h108v-9h-72zm-9-378h-18v-18h18v18zM531 954h-27v-45h18v27h9v-36h-27v-72h18v54h9v-27h27v-54h27V693h-9v99h-27v54h-18v-27h-36v144h27v207h-72v9h81zm-81 243h243v9H450zm261 0h54v9h-54z"/><path class="st0" d="M1098 1206h18v18h-18zm0 27h18v18h-18z"/><path class="st3" d="M1098 1224h18v9h-18z"/><path d="M1071 1314h18v18h-18zm-378 0h18v18h-18zm378-27h18v18h-18zm-378 0h18v18h-18zm378-27h18v18h-18zm-27 27h18v18h-18zm0-27h18v18h-18zm27-27h18v18h-18zm0-27h18v18h-18zm-378 54h18v18h-18zm-27 27h18v18h-18zm0-27h18v18h-18zm-27 27h18v18h-18zm0-27h18v18h-18zm-27 27h18v18h-18zm0-27h18v18h-18zm-27 27h18v18h-18zm0-27h18v18h-18zm-27 27h18v18h-18zm0-27h18v18h-18zm-27 27h18v18h-18zm0-27h18v18h-18zm-27 27h18v18h-18zm0-27h18v18h-18zm-27 27h18v18h-18zm0-27h18v18h-18zm432 27h18v18h-18zm0-27h18v18h-18zm-27 27h18v18h-18zm0-27h18v18h-18zm-27 27h18v18h-18zm0-27h18v18h-18zm-27 27h18v18h-18zm0-27h18v18h-18zm189 27h18v18h-18zm0-27h18v18h-18zm-27 27h18v18h-18zm0-27h18v18h-18zm-27 27h18v18h-18zm0-27h18v18h-18zm-27 27h18v18h-18zm0-27h18v18h-18zm-135 27h18v18h-18zm0-27h18v18h-18zm-27 27h18v18h-18zm0-27h18v18h-18zm-27 27h18v18h-18zm0-27h18v18h-18zm-27 27h18v18h-18zm0-27h18v18h-18zm567 27h18v18h-18zm0-27h18v18h-18zm-27 27h18v18h-18zm0-27h18v18h-18zm81 0h18v18h-18zm-27 27h18v18h-18zm0-27h18v18h-18zm-81 27h18v18h-18zm0-27h18v18h-18zm-27 27h18v18h-18zm0-27h18v18h-18zm-27 27h18v18h-18zm0-27h18v18h-18zm-27 27h18v18h-18zm0-27h18v18h-18zm-27 27h18v18h-18zm0-27h18v18h-18zm-27 27h18v18h-18zm0-27h18v18h-18zm-648 0h18v18h-18zm243-27h18v18h-18zm0-27h18v18h-18z" fill="#00ae8c"/><path class="st5" d="M693 1305h18v9h-18zm0-54h18v9h-18zm378 0h18v9h-18zm18-18h9v18h-9zm-18 72h18v9h-18zm261-45h9v18h-9zm27 0h9v18h-9zm-891 0h9v18h-9z"/><path d="M1071 1224h18v9h-18zm-378 0h18v9h-18zm621 54v-18h-9v18h-18v-18h-9v18h-18v-18h-9v18h-18v-18h-9v18h-18v-18h-9v18h-18v-18h-9v18h-18v-18h-9v18h-18v-18h-9v18h-18v-18h-9v18h-18v-18h-9v18h-18v-18h-9v18h-18v-18h-9v18h-18v-18h-9v18h-18v-18h-9v18h-18v-18h-9v18h-18v-18h-9v18h-18v-18h-9v18h-18v-18h-9v18h-18v-18h-9v18h-18v-18h-9v18h-18v-18h-9v18h-18v-18h-9v18h-18v-18h-9v18h-18v-18h-9v18h-18v-18h-9v18h-18v-18h-9v18h-18v-18h-9v18h-18v-18h-9v18h-18v-18h-9v18h-18v-18h-9v18h-18v-18h-9v18h-18v9h18v18h9v-18h18v18h9v-18h18v18h9v-18h18v18h9v-18h18v18h9v-18h18v18h9v-18h18v18h9v-18h18v18h9v-18h18v18h9v-18h18v18h9v-18h18v18h9v-18h18v18h9v-18h18v18h9v-18h18v18h9v-18h18v18h9v-18h18v18h9v-18h18v18h9v-18h18v18h9v-18h18v18h9v-18h18v18h9v-18h18v18h9v-18h18v18h9v-18h18v18h9v-18h18v18h9v-18h18v18h9v-18h18v18h9v-18h18v18h9v-18h18v18h9v-18h18v18h9v-18h18v18h9v-18h18v18h9v-18h18v-9z" fill="#029276"/><path d="M684 1251H450v9h243v-54h-9zm378 0H720v-45h-9v54h360v-54h-9zm-351 54v27h9v-18h342v18h9v-27zm-234 0v-27h-27v9h18v27h216v18h9v-27zm648-54v-45h-9v45h-27v9h279v-9zm-36-45h9v27h-9zm243 99h-243v27h9v-18h243v-27h27v-9h-36z" fill="#6bffe1"/><path class="st5" d="M585 684h18v9h-18z"/><path class="st1" d="M639 342h18v18h-18zm-54 243h18v18h-18zm0-54h18v18h-18zm0 27h18v18h-18zM558 99h18v18h-18zm0-54h18v18h-18zm0-27h18v18h-18zm0 54h18v18h-18zm27 27h18v18h-18zm0-54h18v18h-18zm0-27h18v18h-18zm0 54h18v18h-18zm27 27h18v18h-18zm0-54h18v18h-18zm0-27h18v18h-18zm0 54h18v18h-18zm27 27h18v18h-18zm0-54h18v18h-18zm0-27h18v18h-18zm0 54h18v18h-18z"/><path d="M585 666h18v18h-18zm-27-27h18v18h-18zm0 27h18v18h-18zm27-54h18v18h-18zm0 27h18v18h-18zm27 27h18v18h-18zm0-54h18v18h-18zm0-27h18v18h-18zm0 54h18v18h-18zm-27-162h18v18h-18zm0-27h18v18h-18zm0-27h18v18h-18zm-81-27h18v18h-18zm0-27h18v18h-18zm0-27h18v18h-18zm162 27h18v18h-18zm0-27h18v18h-18zm-81 54h18v18h-18zm-54 0h18v18h-18zm81 0h18v18h-18zm27 0h18v18h-18zm27 0h18v18h-18zm-135-54h18v18h-18zm27 0h18v18h-18zm27 0h18v18h-18zm27 0h18v18h-18zm-27 162h18v18h-18zm0-297h18v18h-18zm0-27h18v18h-18zm0-27h18v18h-18zm0-27h18v18h-18zm0 108h18v18h-18zm0 81h18v18h-18zm0-54h18v18h-18zm0 27h18v18h-18zm-27 216h18v18h-18zm0 27h18v18h-18zm54-27h18v18h-18zm0 27h18v18h-18z" fill="#c72eff"/><path class="st0" d="M558 585h18v18h-18zm0 27h18v18h-18zm0-243h18v18h-18zm0 27h18v18h-18zm0-270h18v18h-18zm0 27h18v18h-18z"/><path class="st3" d="M558 387h18v9h-18zm0-243h18v9h-18zm0 459h18v9h-18z"/><path class="st10" d="M585 576h18v9h-18zm0-27h18v9h-18zm72-504v-9h-18V18h-9v18h-18V18h-9v18h-18V18h-9v18h-18v9h18v18h-18v9h18v18h-18v9h18v18h9V99h18v18h9V99h18v18h9V99h18v-9h-18V72h18v-9h-18V45h18zm-72 0h18v18h-18V45zm0 45V72h18v18h-18zm45 0h-18V72h18v18zm0-27h-18V45h18v18z"/><path class="st5" d="M585 117h18v9h-18zm-9 36h9v18h-9zm9 180h18v9h-18zm45 9h9v18h-9zm27 0h9v18h-9zm0 54h9v18h-9zm-135 0h9v18h-9zm54 0h9v18h-9zm-54-54h9v18h-9zm27 0h9v18h-9zm54 54h9v18h-9zm-18 45h18v9h-18zm-9 63h9v18h-9zm27 0h9v18h-9zm-27 27h9v18h-9zm27 54h9v18h-9zm-27 27h9v18h-9zm0 27h9v18h-9zm0 27h9v18h-9zm27-27h9v18h-9z"/><path d="M585 144h18v9h-18zm0 27h18v9h-18zm0 27h18v9h-18zm0 27h18v9h-18zm0 27h18v9h-18zm0 27h18v9h-18zm0 27h18v9h-18zm-81 54h18v9h-18zm0 27h18v9h-18zm72-45h9v18h-9zm27 0h9v18h-9zm63 18h18v9h-18zm0 27h18v9h-18zm-36 9h9v18h-9zm-45 18h18v9h-18zm0 54h18v9h-18zm0 27h18v9h-18zm-27 27h18v9h-18zm54 0h18v9h-18zm0 81h18v9h-18zm0 27h18v9h-18zm0 27h18v9h-18zm-54 0h18v9h-18zm27-27h18v9h-18z" fill="#b400f6"/><path d="M612 333V126h54V9H549v171h27v153h-81v90h81v72h-27v63h27v18h-27v117h36v-9h-27v-45h27v-9h-27v-45h18v27h27v27h9v-36h-27v-54h-27v-45h27v-90h-27v-45h18v27h90v-36H522v36h27v18h-45v-72h81V171h-27v-45h18v27h9v-36h-27V18h99v99h-54v225h81v72h-81v90h27v45h-18v-27h-36v9h27v54h27v99h-18v-27h-36v9h27v27h36V576h-27v-18h27v-63h-27v-72h81v-90h-81zm-27 36h72v18h-72v-18zm-54 18v-18h18v18h-18z" fill="#e191ff"/><path class="st0" d="M1125 1017h18v18h-18zm0 27h18v18h-18z"/><path class="st3" d="M1125 1035h18v9h-18z"/><path class="st0" d="M1017 882h18v18h-18zm0 27h18v18h-18z"/><path class="st3" d="M1017 900h18v9h-18z"/><path class="st0" d="M936 1071h18v18h-18zm0 27h18v18h-18z"/><path class="st3" d="M936 1089h18v9h-18z"/><path class="st5" d="M1071 1197h18v9h-18zm288-18h9v18h-9z"/><path class="st7" d="M1125 1179h18v18h-18zm0-27h18v18h-18zm27 27h18v18h-18zm0-27h18v18h-18zm27 27h18v18h-18zm0-27h18v18h-18zm27 27h18v18h-18zm0-27h18v18h-18zm27 27h18v18h-18zm0-27h18v18h-18z"/><path class="st8" d="M1233 1170v-18h-9v18h-18v-18h-9v18h-18v-18h-9v18h-18v-18h-9v18h-18v9h18v18h9v-18h18v18h9v-18h18v18h9v-18h18v18h9v-18h18v-9z"/><path class="st1" d="M1152 1098h18v18h-18zm0-27h18v18h-18zm27 27h18v18h-18zm0-27h18v18h-18zM909 909h18v18h-18zm0-27h18v18h-18zm27 27h18v18h-18zm0-27h18v18h-18zm27 27h18v18h-18zm0-27h18v18h-18z"/><path d="M1260 1179h18v18h-18zm0-54h18v18h-18zm0 27h18v18h-18zm-162 27h18v18h-18zm0-54h18v18h-18zm0 27h18v18h-18zm0-108h18v18h-18zm0-54h18v18h-18zm0 27h18v18h-18zm27 81h18v18h-18zm0 27h18v18h-18zm-351 54h18v18h-18zm0-54h18v18h-18zm0 27h18v18h-18zm27 27h18v18h-18zm0-54h18v18h-18zm0 27h18v18h-18zm27 27h18v18h-18zm0-54h18v18h-18zm0 27h18v18h-18zm27 27h18v18h-18zm0-54h18v18h-18zm0 27h18v18h-18zm27 27h18v18h-18zm0-54h18v18h-18zm0 27h18v18h-18zm27 27h18v18h-18zm0-54h18v18h-18zm0 27h18v18h-18zm27 27h18v18h-18zm0-54h18v18h-18zm0 27h18v18h-18zm27 27h18v18h-18zm0-54h18v18h-18zm0 27h18v18h-18zm27 27h18v18h-18zm0-54h18v18h-18zm-81-135h18v18h-18zm27 0h18v18h-18zm27 0h18v18h-18zm27 0h18v18h-18zm-81-27h18v18h-18zm27 0h18v18h-18zm27 0h18v18h-18zm27 0h18v18h-18zm-81-27h18v18h-18zm-27 0h18v18h-18zm0-27h18v18h-18zm54 27h18v18h-18zm27 0h18v18h-18zm27 0h18v18h-18zm0-27h18v18h-18zm0 243h18v18h-18zm27 27h18v18h-18zm0-54h18v18h-18zm0 27h18v18h-18zm27-27h18v18h-18zm0-54h18v18h-18zm0 27h18v18h-18zm-54 0h18v18h-18zm81 27h18v18h-18zm0-54h18v18h-18zm0 27h18v18h-18zm-27-81h18v18h-18zm0 27h18v18h-18zm-81 27h18v18h-18zm0 27h18v18h-18zm0-81h18v18h-18zm0 27h18v18h-18zm-54 0h18v18h-18zm27-27h18v18h-18zm0 27h18v18h-18zm135-27h18v18h-18zm0 27h18v18h-18zm216 135h18v18h-18zm0-54h18v18h-18zm0 27h18v18h-18zm-243 27h18v18h-18zm0-27h18v18h-18zm27 27h18v18h-18zm0-27h18v18h-18zm243 27h18v18h-18zm0-54h18v18h-18zm0 27h18v18h-18zm27 27h18v18h-18zm0-54h18v18h-18zm-189 0h18v18h-18zm27 0h18v18h-18zm-27-81h18v18h-18zm27 0h18v18h-18zm27 81h18v18h-18zm27 0h18v18h-18zm108 27h18v18h-18z" fill="#3a18a0"/><path class="st5" d="M1089 1179h9v18h-9zm27 0h9v18h-9zm9-36h18v9h-18zm18-45h9v18h-9zm9-36h18v9h-18zm-9-18h9v18h-9zm-27 0h9v18h-9zm-27 0h9v18h-9zm0 81h9v18h-9zm-54 27h9v18h-9zm-72-36h18v9h-18zm-9-18h9v18h-9zm0-54h9v18h-9zm-27 0h9v18h-9zm-162 135h9v18h-9zm486 0h9v18h-9zm0-54h9v18h-9zm-243-216h9v18h-9zm-18 18h18v9h-18zm-9-18h9v18h-9zm-81 0h9v18h-9zm0 27h9v18h-9zm36 72h18v9h-18z"/><path class="st10" d="M963 900v-18h-9v18h-18v-18h-9v18h-18v9h18v18h9v-18h18v18h9v-18h18v-9zm216 189v-18h-9v18h-18v9h18v18h9v-18h18v-9z"/><path d="M882 927h18v9h-18zm54 108h18v9h-18zm234 9h9v18h-9zm-72-9h18v9h-18zm0-27h18v9h-18zm-135 81h18v9h-18zm0-27h18v9h-18zm0-27h18v9h-18zm-36-27h9v-18h18v18h9v-18h18v18h9v-18h18v-9h-18v-18h18v-9h-18v-18h-9v18h-18v-18h-9v18h-18v-18h-9v18h-18v9h18v18h-18v9h18v18zm36-45h18v18h-18v-18zm-27 0h18v18h-18v-18zm189 153h18v9h-18zm45 9h9v18h-9zm27 0h9v18h-9zm27 0h9v18h-9zm135 27v-9h-18v-18h-9v18h-18v-18h-9v18h-18v-18h-9v18h-18v9h18v18h-18v9h18v18h9v-18h18v18h9v-18h18v18h9v-18h18v-9h-18v-18h18zm-72 18v-18h18v18h-18zm45 0h-18v-18h18v18zm-234 0h18v9h-18zm0-27h18v9h-18zm-27-126h-9v18h-18v9h18v18h-18v9h18v18h-18v9h18v18h-18v9h18v18h9v-18h18v-9h-18v-18h18v-9h-18v-18h18v-9h-18v-18h18v-9h-18zm0 135h-9v18h-18v9h18v18h9v-18h18v-9h-18zm-54-27h-9v18h-18v-18h-9v18h-18v-18h-9v18h-18v-18h-9v18h-18v-18h-9v18h-18v-18h-9v18h-18v-18h-9v18h-18v-18h-9v18h-18v-18h-9v18h-18v9h18v18h-18v9h18v18h9v-18h18v18h9v-18h18v18h9v-18h18v18h9v-18h18v18h9v-18h18v18h9v-18h18v18h9v-18h18v18h9v-18h18v18h9v-18h18v-9h-18v-18h18v-9h-18v-18zm-216 45v-18h18v18h-18zm27 0v-18h18v18h-18zm27 0v-18h18v18h-18zm27 0v-18h18v18h-18zm27 0v-18h18v18h-18zm27 0v-18h18v18h-18zm27 0v-18h18v18h-18zm45 0h-18v-18h18v18z" fill="#27106e"/><path class="st7" d="M1260 1611h18v18h-18zm0 27h18v18h-18z"/><path class="st8" d="M1260 1629h18v9h-18z"/><path class="st0" d="M1098 1611h18v18h-18zm0 27h18v18h-18z"/><path class="st3" d="M1098 1629h18v9h-18z"/><path class="st0" d="M1287 1476h18v18h-18zm0 27h18v18h-18z"/><path class="st3" d="M1287 1494h18v9h-18z"/><path class="st0" d="M1125 1341h18v18h-18zm0 27h18v18h-18z"/><path class="st3" d="M1125 1359h18v9h-18z"/><path class="st1" d="M1206 1368h18v18h-18zm27 0h18v18h-18zm-27-27h18v18h-18zm27 0h18v18h-18z"/><path d="M990 1692h18v18h-18zm27 0h18v18h-18zm0-27h18v18h-18zm0-54h18v18h-18zm0-27h18v18h-18zm0-27h18v18h-18zm27 0h18v18h-18zm0 27h18v18h-18zm0 81h18v18h-18zm0-27h18v18h-18zm0-27h18v18h-18zm162-108h18v18h-18zm0-27h18v18h-18zm0-27h18v18h-18zm27 0h18v18h-18zm-27-27h18v18h-18zm-27 0h18v18h-18zm-27 0h18v18h-18zm-27 0h18v18h-18zm108 0h18v18h-18zm27-54h18v18h-18zm27 0h18v18h-18zm27 0h18v18h-18zm-54-27h18v18h-18zm27 0h18v18h-18zm-216 27h18v18h-18zm27 0h18v18h-18zm-27-27h18v18h-18zm27 0h18v18h-18zm162 81h18v18h-18zm27 0h18v18h-18zm-54 54h18v18h-18zm-162 0h18v18h-18zm0-27h18v18h-18zm27 0h18v18h-18zm-27-27h18v18h-18zm-81 81h18v18h-18zm0-27h18v18h-18zm0-27h18v18h-18zm108-27h18v18h-18zm-81 0h18v18h-18zm0 27h18v18h-18zm0 27h18v18h-18zm27-54h18v18h-18zm54 81h18v18h-18zm-54 0h18v18h-18zm-27 0h18v18h-18zm54 0h18v18h-18zm27-27h18v18h-18zm135 27h18v18h-18zm-162 108h18v18h-18zm0 27h18v18h-18zm54-27h18v18h-18zm0 27h18v18h-18zm27-27h18v18h-18zm0 27h18v18h-18zm81-27h18v18h-18zm0 27h18v18h-18zm-27 27h18v18h-18zm27 0h18v18h-18zm27 0h18v18h-18zm-189 0h18v18h-18zm-81-108h18v18h-18zm108 0h18v18h-18zm27 0h18v18h-18zm27 0h18v18h-18zm0 27h18v18h-18zm0-81h18v18h-18zm0 27h18v18h-18zm0-81h18v18h-18zm0-81h18v18h-18zm27 0h18v18h-18zm-27 27h18v18h-18zm0 81h18v18h-18zm-81 81h18v18h-18zm135 0h18v18h-18zm27 0h18v18h-18zm27 0h18v18h-18zm0 27h18v18h-18zm0-81h18v18h-18zm0 27h18v18h-18zm54-54h18v18h-18zm0 27h18v18h-18zm0-81h18v18h-18zm27 0h18v18h-18zm-27 27h18v18h-18zm-27 108h18v18h-18zm0 27h18v18h-18zm0 27h18v18h-18zm-108-54h18v18h-18z" fill="#2933fd"/><path class="st10" d="M1233 1359v-18h-9v18h-18v9h18v18h9v-18h18v-9z"/><path d="M1287 1341h-9v18h-18v9h18v18h9v-18h18v-9h-18zm-198 45h9v-18h18v-9h-18v-18h-9v18h-18v9h18zm27 81h-18v-18h18v-9h-18v-18h-9v18h-18v9h18v18h-18v9h18v18h9v-18h18zm-99-27h18v9h-18zm-27 27h18v9h-18zm0 27h18v9h-18zm45 9h9v18h-9zm27 0h9v18h-9zm162 18h9v-18h18v-9h-18v-18h18v-9h-18v-18h-9v18h-18v9h18v18h-18v9h18zm-27-99h9v18h-9zm81 0h9v18h-9zm36 18h18v9h-18zm0 27h18v9h-18zm0 27h18v9h-18zm-54 27h18v9h-18zm0 27h18v9h-18zm0 27h18v9h-18zm27 0h18v9h-18zm0 27h18v9h-18zm-54 27h18v9h-18zm18 36h9v18h-9zm-126-36h18v9h-18zm27-189h18v9h-18zm0-27h18v9h-18zm0-27h18v9h-18zm0 108h18v9h-18zm0 27h18v9h-18zm0 27h18v9h-18zm0 27h18v9h-18zm0 27h18v9h-18zm0 27h18v9h-18zm45-72h9v18h-9zm27 0h9v18h-9zm-216 0h9v18h-9zm9 45h18v9h-18zm72-45h9v18h-9zm27 0h9v18h-9zm-45 54h-9v18h-18v9h18v18h-18v9h18v18h9v-18h18v-9h-18v-18h18v-9h-18zm-54 72h18v9h-18z" fill="#171ee7"/><path class="st5" d="M1071 1332h18v9h-18zm45 36h9v18h-9zm27 0h9v18h-9zm27 0h9v18h-9zm27 0h9v18h-9zm54-27h9v18h-9zm0 27h9v18h-9zm54 0h9v18h-9zm-162 54h9v18h-9zm-27 0h9v18h-9zm-54 0h9v18h-9zm-27 0h9v18h-9zm-27 27h9v18h-9zm0 27h9v18h-9zm0 27h9v18h-9zm81 0h9v18h-9zm63-36h18v9h-18zm18-45h9v18h-9zm54 0h9v18h-9zm9 18h18v9h-18zm18-18h9v18h-9zm54 0h9v18h-9zm27 0h9v18h-9zm-27 81h9v18h-9zm-27 0h9v18h-9zm-27 0h9v18h-9zm0 54h9v18h-9zm27 0h9v18h-9zm-27 54h9v18h-9zm27 0h9v18h-9zm-45 45h18v9h-18zm-9 9h9v18h-9zm-81-27h9v18h-9zm-27 0h9v18h-9zm-27 0h9v18h-9zm-54 27h9v18h-9zm-27 27h9v18h-9zm27-81h9v18h-9zm0-27h9v18h-9zm0-27h9v18h-9zm27 0h9v18h-9zm81 0h9v18h-9zm27 0h9v18h-9zm189-135h9v18h-9z"/><path class="st25" d="M1152 1638v-63H990v9h18v54h27v18h-27v27h-18v9h27v-27h27v-36h-27v-45h45v18h-27v9h54v27h9v-27h18v27h9v-27h18v27h9zm-81-36v-18h72v18h-72zm54-72v-81h18v99H990v9h162v-117h-36v54h-45v-54h-9v54h-18v-54h-9v27h-27v9h27v18h-27v9h108v18H990v-72h27v-27h135v-36h-81v-54h-9v63h81v18h-135v27h-27v90zm108-81v-9h-63v117h90v-36h-54v-72h27zm18 81v18h-72v-99h18v81h54z"/><path class="st25" d="M1314 1503v-63h-63v63h36v-27h18v27h9zm-36-36v27h-18v-45h45v18h-27zm-27-108h9v9h-9z"/><path class="st25" d="M1332 1440v81h-54v36h27v72h-27v27h-18v-27h-9v36h27v18h-72v-18h27v-54h54v-36h-9v27h-18v-27h-90v81h-81v27h-54v27h-45v9h54v-27h54v-27h81v-81h72v18h-27v54h-27v36h90v-54h27v-90h-27v-18h54v-81h27v-9zm-153-27v-18h162v-36h-27v-27h-117v27h-45v-27h-63v9h27v27h9v-27h18v27h63v-27h99v27h27v18h-162v36h198v-9z"/><path class="st0" d="M1395 1368h18v18h-18zm0 27h18v18h-18z"/><path class="st3" d="M1395 1386h18v9h-18zm135-324h18v9h-18z"/><path class="st0" d="M1530 1044h18v18h-18zm0 27h18v18h-18zm27-27h18v18h-18zm0 27h18v18h-18z"/><path class="st3" d="M1557 1062h18v9h-18z"/><path class="st0" d="M1692 774h18v18h-18zm0 27h18v18h-18z"/><path class="st3" d="M1692 792h18v9h-18z"/><path class="st0" d="M1530 747h18v18h-18zm0 27h18v18h-18z"/><path class="st3" d="M1530 765h18v9h-18z"/><path class="st1" d="M1611 1044h18v18h-18zm0-27h18v18h-18zm27 27h18v18h-18zm0-27h18v18h-18z"/><path class="st7" d="M1665 1044h18v18h-18zm0-27h18v18h-18z"/><path d="M1368 1422h18v18h-18zm0-27h18v18h-18zm27-54h18v18h-18zm0-27h18v18h-18zm27 27h18v18h-18zm0-27h18v18h-18zm-27-27h18v18h-18zm-27 54h18v18h-18zm0 27h18v18h-18zm0-54h18v18h-18zm0-27h18v18h-18zm27-27h18v18h-18zm-27-27h18v18h-18zm0-27h18v18h-18zm0-27h18v18h-18zm0-27h18v18h-18zm0-27h18v18h-18zm0-27h18v18h-18zm27 54h18v18h-18zm0-27h18v18h-18zm0-27h18v18h-18zm0-27h18v18h-18zm0-27h18v18h-18zm0-27h18v18h-18zm27 135h18v18h-18zm0-27h18v18h-18zm0-27h18v18h-18zm27 54h18v18h-18zm0-27h18v18h-18zm0-27h18v18h-18zm27 54h18v18h-18zm0-27h18v18h-18zm0-27h18v18h-18zm27 54h18v18h-18zm0-27h18v18h-18zm0-27h18v18h-18zm27 27h18v18h-18zm0-27h18v18h-18zm27 27h18v18h-18zm0-27h18v18h-18zm27 27h18v18h-18zm0-27h18v18h-18zm54-108h18v18h-18zm0-27h18v18h-18zm-243 0h18v18h-18zm216-27h18v18h-18zm0-27h18v18h-18zm27 0h18v18h-18zm-27-27h18v18h-18zm54 0h18v18h-18zm0-27h18v18h-18zm0-27h18v18h-18zm-27 54h18v18h-18zm27 108h18v18h-18zm0-27h18v18h-18zm27 0h18v18h-18zm27 0h18v18h-18zm0-27h18v18h-18zm27 27h18v18h-18zm27 0h18v18h-18zm-27-27h18v18h-18zm27 0h18v18h-18zm27 0h18v18h-18zm-81-27h18v18h-18zm27 0h18v18h-18zm27 0h18v18h-18zm27 0h18v18h-18zm-81-27h18v18h-18zm27 0h18v18h-18zm27 0h18v18h-18zm27 0h18v18h-18zm-81-27h18v18h-18zm27 0h18v18h-18zm27 0h18v18h-18zm27 0h18v18h-18zm-81-27h18v18h-18zm27 0h18v18h-18zm27 0h18v18h-18zm27 0h18v18h-18zm-81-27h18v18h-18zm27 0h18v18h-18zm-135 54h18v18h-18zm27 0h18v18h-18zm-27-27h18v18h-18zm27 0h18v18h-18zm-27-27h18v18h-18zm-135 135h18v18h-18zm0-27h18v18h-18zm0-27h18v18h-18zm0-27h18v18h-18zm0-27h18v18h-18zm0-27h18v18h-18zm27 135h18v18h-18zm0-27h18v18h-18zm0-27h18v18h-18zm0-27h18v18h-18zm0-27h18v18h-18zm0-27h18v18h-18zm27 135h18v18h-18zm0-27h18v18h-18zm0-27h18v18h-18zm0-27h18v18h-18zm0-27h18v18h-18zm0-27h18v18h-18zm27 135h18v18h-18zm0-27h18v18h-18zm0-27h18v18h-18zm0-27h18v18h-18zm0-27h18v18h-18zm0-27h18v18h-18zm27 135h18v18h-18zm0-27h18v18h-18zm0-27h18v18h-18zm0-27h18v18h-18zm0-27h18v18h-18zm0-27h18v18h-18zm54 0h18v18h-18zm-27-27h18v18h-18zm27 0h18v18h-18zm-27-27h18v18h-18zm27 0h18v18h-18zm-27-27h18v18h-18zm27 0h18v18h-18zm-81 54h18v18h-18zm27 0h18v18h-18zm-27-27h18v18h-18zm27 0h18v18h-18zm-27-27h18v18h-18zm27 0h18v18h-18zm189 81h18v18h-18zm27 0h18v18h-18zm-270 216h18v18h-18zm0-27h18v18h-18zm-135 0h18v18h-18zm27 81h18v18h-18zm0-27h18v18h-18zm0-27h18v18h-18zm0-54h18v18h-18zm0 27h18v18h-18zm27 81h18v18h-18zm0-27h18v18h-18zm0-27h18v18h-18zm0-54h18v18h-18zm0 27h18v18h-18zm27 81h18v18h-18zm0-27h18v18h-18zm0-27h18v18h-18zm0-54h18v18h-18zm0 27h18v18h-18zm27 81h18v18h-18zm0-27h18v18h-18zm0-27h18v18h-18zm0-54h18v18h-18zm0 27h18v18h-18zm54 27h18v18h-18zm0-27h18v18h-18zm27 27h18v18h-18zm0-27h18v18h-18zm27 0h18v18h-18zm-27 81h18v18h-18zm0-27h18v18h-18zm-216 216h18v18h-18zm54 27h18v18h-18zm27-27h18v18h-18zm-27 0h18v18h-18zm54 0h18v18h-18zm0 27h18v18h-18zm0 27h18v18h-18zm27 0h18v18h-18zm0 27h18v18h-18zm0-81h18v18h-18zm27 0h18v18h-18zm0 81h18v18h-18zm27 0h18v18h-18zm27 0h18v18h-18zm27 0h18v18h-18zm-54-81h18v18h-18zm27 0h18v18h-18zm27 0h18v18h-18zm0 27h18v18h-18zm0 27h18v18h-18zm-54-81h18v18h-18zm27 0h18v18h-18zm27 0h18v18h-18z" fill="#8b176e"/><path class="st10" d="M1638 1035v-18h-9v18h-18v9h18v18h9v-18h18v-9z"/><path class="st8" d="M1665 1035h18v9h-18z"/><path class="st5" d="M1656 1044h9v18h-9zm9-36h18v9h-18zm-27 0h18v9h-18zm-9-18h9v18h-9zm-27 0h9v18h-9zm0 54h9v18h-9zm-27 27h9v18h-9zm-54 0h9v18h-9zm54 54h9v18h-9zm81-162h9v18h-9zm27 0h9v18h-9zm54 0h9v18h-9zm9-9h18v9h-18zm45 9h9v18h-9zm-81-162h9v18h-9zm-45 45h18v9h-18zm-9 36h9v18h-9zm-18 18h18v9h-18zm-9 9h9v18h-9zm-27 27h9v18h-9zm-54-162h9v18h-9zm9 18h18v9h-18zm99-45h9v18h-9zm-54 54h9v18h-9zm-81 216h9v18h-9zm0-27h9v18h-9zm-18-36h18v9h-18zm-135 216h18v9h-18zm153-45h9v18h-9zm-27 27h9v18h-9zm-27 0h9v18h-9zm0-27h9v18h-9zm27-27h9v18h-9zm-45-9h18v9h-18zm-63 171h9v18h-9zm27 0h9v18h-9zm-27 27h9v18h-9zm36 18h18v9h-18zm-36 36h9v18h-9zm0 54h9v18h-9zm90-117h18v9h-18zm18 36h9v18h-9zm108 27h9v18h-9zm9-63h18v9h-18zm-63-18h9v18h-9z"/><path d="M1611 1233h-9v18h-18v-18h-9v18h-18v9h18v18h9v-18h18v18h9v-18h18v-9h-18zm-135 72h18v9h-18zm27 27h18v9h-18zm45 9h9v18h-9zm27 0h9v18h-9zm36-9h18v9h-18zm0-27h18v9h-18zm-171-45h9v18h-9zm27 0h9v18h-9zm27 0h9v18h-9zm27 0h9v18h-9zm-108 27h9v18h-9zm9 27h-9v18h-18v9h18v18h9v-18h18v-9h-18zm-54 18h18v9h-18zm0-135h18v9h-18zm0 27h18v9h-18zm0 27h18v9h-18zm0 27h18v9h-18zm0 81h18v9h-18zm0 27h18v9h-18zm0 27h18v9h-18zm108-297h18v9h-18zm27 27h18v9h-18zm45 0h9v-18h18v-9h-18v-18h-9v18h-18v9h18zm36-81h18v9h-18zm0 27h18v9h-18zm0 27h18v9h-18zm-117 27h-18v-18h18v-9h-18v-18h-9v18h-18v-18h-9v18h-18v-18h-9v18h-18v9h18v18h-18v9h18v18h9v-18h18v18h9v-18h18v18h9v-18h18v-9zm-72 0v-18h18v18h-18zm27 0v-18h18v18h-18zm-9-54h9v-18h18v18h9v-18h18v18h9v-18h18v18h9v-18h18v-9h-18v-18h18v-9h-18v-18h18v-9h-18v-18h18v-9h-18v-18h-9v18h-18v-18h-9v18h-18v-18h-9v18h-18v-18h-9v18h-18v9h18v18h-18v9h18v18h-18v9h18v18h-18v9h18v18zm63-99h18v18h-18v-18zm0 27h18v18h-18v-18zm0 27h18v18h-18v-18zm-27-54h18v18h-18v-18zm0 27h18v18h-18v-18zm0 27h18v18h-18v-18zm-27-54h18v18h-18v-18zm0 27h18v18h-18v-18zm0 27h18v18h-18v-18zm180-36h-18v-18h-9v18h-18v-18h-9v18h-18v9h18v18h9v-18h18v18h9v-18h18zm36-27h18v9h-18zm27 0h18v9h-18zm45-18h9v18h-9zm54 0h9v18h-9zm-126-243h-9v18h-18v-18h-9v18h-18v-18h-9v18h-18v9h18v18h-18v9h18v18h9v-18h18v18h9v-18h18v18h9v-18h18v-9h-18v-18h18v-9h-18v-18zm-54 45v-18h18v18h-18zm45 0h-18v-18h18v18zm-18 162h18v9h-18zm18-45h9v18h-9zm36-9h18v9h-18zm-27-72h-9v18h-18v9h18v18h-18v9h18v18h9v-18h18v-9h-18v-18h18v-9h-18zm180 27v-9h-18v-18h-9v18h-18v-18h-9v18h-18v-18h-9v18h-18v9h18v18h-18v9h18v18h-18v9h18v18h-18v9h18v18h-18v9h18v18h9v-18h18v18h9v-18h18v18h9v-18h18v-9h-18v-18h18v-9h-18v-18h18v-9h-18v-18h18v-9h-18v-18h18zm-54 99h-18v-18h18v18zm0-27h-18v-18h18v18zm0-27h-18v-18h18v18zm0-27h-18v-18h18v18zm27 81h-18v-18h18v18zm0-27h-18v-18h18v18zm0-27h-18v-18h18v18zm0-27h-18v-18h18v18zm-297 108h9v-18h18v18h9v-18h18v18h9v-18h18v18h9v-18h18v-9h-18v-18h18v-9h-18v-18h18v-9h-18v-18h18v-9h-18v-18h18v-9h-18v-18h-9v18h-18v-18h-9v18h-18v-18h-9v18h-18v-18h-9v18h-18v9h18v18h-18v9h18v18h-18v9h18v18h-18v9h18v18h-18v9h18v18zm36-27v-18h18v18h-18zm0-45h18v18h-18v-18zm0-27h18v18h-18v-18zm45 72h-18v-18h18v18zm0-27h-18v-18h18v18zm0-27h-18v-18h18v18zm0-45v18h-18v-18h18zm-27 0v18h-18v-18h18zm-45 0h18v18h-18v-18zm0 27h18v18h-18v-18zm0 27h18v18h-18v-18zm0 27h18v18h-18v-18z" fill="#651351"/><path class="st28" d="M1368 1314h18v27h9v-27h27v-9h-54v-18h-9v126h9zm153-306h9v9h-9zm63 63v-27h27v-27h27v-9h-36v27h-81v36h9v-27h18v45h-81v36h9v-27h45v18h-27v27h-27v9h36v-27h27v-27h45v27h9v-36h-27v-45h18v27z"/><path class="st28" d="M1683 981v81h-81v81h-81v27h-135v90h171v-27h72v126h-99v-18h81v-63h-117v36h27v45h-18v-27h-27v-54h-90v9h54v72h-54v36h9v-27h18v45h-27v27h-18v9h27v-27h27v-54h27v-81h18v54h27v27h144v-144h-90v27h-153v-72h135v-27h81v-81h81v-81h108v-9h-117zm-180 324v-18h99v45h-72v-27h-27z"/><path class="st28" d="M1656 981h9v63h-9z"/><path class="st28" d="M1719 792v-27h-36v54h-18v-54h-9v27h-81v9h81v72h-45v-54h-9v117h9v-27h27v-9h-27v-18h54v-54h18v72h-27v27h-27v27h-108v36h117v-27h108v-9h-27V819h-27v-45h18v27h108v153h-54v9h63V792h-108zm-90 189h-99v-18h99v18zm81-153v126h-72v-18h27v-27h27v-81h18zm-351 378h9v45h-9z"/><path class="st28" d="M1368 1098h81v-9h-54V963h108v-9h-27V801h81v-9h-27v-45h18v27h9v-54h99v27h9v-36h-117v27h-27v54h-54v162h-81v135h-27v27h9z"/><path class="st0" d="M1827 963h18v18h-18zm0 27h18v18h-18zm54-270h18v18h-18zm0 27h18v18h-18zm-108-54h18v18h-18zm0 27h18v18h-18z"/><path d="M1800 963h18v18h-18zm0 27h18v18h-18zm-27 0h18v18h-18zm-27 0h18v18h-18zm54 27h18v18h-18zm54-81h18v18h-18zm0 27h18v18h-18zm0 27h18v18h-18zm27-108h18v18h-18zm0 27h18v18h-18zm-216-189h18v18h-18zm0 27h18v18h-18zm27-27h18v18h-18zm0 27h18v18h-18zm27-27h18v18h-18zm0 27h18v18h-18zm27-27h18v18h-18zm-54-27h18v18h-18zm27 0h18v18h-18zm27 0h18v18h-18zm-27-27h18v18h-18zm27 0h18v18h-18zm0 81h18v18h-18zm27 0h18v18h-18zm-27-108h18v18h-18zm27 0h18v18h-18zm27 0h18v18h-18zm0 27h18v18h-18zm27 0h18v18h-18zm27 0h18v18h-18zm-54 27h18v18h-18zm27 0h18v18h-18zm27 0h18v18h-18zm-54 27h18v18h-18zm27 0h18v18h-18zm27 0h18v18h-18zm-54 27h18v18h-18zm27 0h18v18h-18zm27 0h18v18h-18zm27 189h18v18h-18zm-27-108h18v18h-18zm0 27h18v18h-18zm0-81h18v18h-18zm0 27h18v18h-18zm0 81h18v18h-18zm-81 135h18v18h-18zm-27 0h18v18h-18zm54 27h18v18h-18zm-27 0h18v18h-18zm-27 0h18v18h-18zm54 27h18v18h-18zm-27 0h18v18h-18zm-27 0h18v18h-18zm54 27h18v18h-18zm-27 0h18v18h-18zm-27 0h18v18h-18zm54 27h18v18h-18zm-27 0h18v18h-18zm-27 0h18v18h-18zm27 27h18v18h-18zm-27 0h18v18h-18zm-27 0h18v18h-18zm54 27h18v18h-18zm-27 0h18v18h-18zm-27 0h18v18h-18zm54 27h18v18h-18zm-27 0h18v18h-18zm-27 0h18v18h-18z" fill="#2c6e57"/><path class="st5" d="M1818 963h9v18h-9zm0 27h9v18h-9zm27 0h9v18h-9zm-72 153h18v9h-18zm-54 27h18v9h-18zm153-234h9v18h-9zm0-54h9v18h-9zm-18-117h18v9h-18zm18-18h9v18h-9zm-81-27h9v18h-9zm-27 27h9v18h-9zm-18-36h18v9h-18zm-27-27h18v9h-18zm18-18h9v18h-9zm27-27h9v18h-9zm36 18h18v9h-18z"/><path d="M1791 747h9v18h-9zm27 0h9v18h-9zm27 0h9v18h-9zm9-81h-9v18h-18v-18h-9v18h-18v9h18v18h-18v9h18v18h9v-18h18v18h9v-18h18v-9h-18v-18h18v-9h-18v-18zm-9 45h-18v-18h18v18zm-54-72h9v18h-9zm-45 18h18v9h-18zm-36 36h9v18h-9zm27 0h9v18h-9zm-18 72v-18h18v18h9v-18h18v-9h-18v-18h-9v18h-18v-18h-9v18h-18v-18h-9v18h-18v9h18v18h9v-18h18v18zm135 27h18v9h-18zm0 27h18v9h-18zm0 27h18v9h-18zm0 27h18v9h-18zm27 27h18v9h-18zm0 27h18v9h-18zm-27 27h18v9h-18zm0 27h18v9h-18zm-117 171h9v18h-9zm27 0h9v18h-9zm9 27h-9v18h-18v-18h-9v18h-18v9h18v18h9v-18h18v18h9v-18h18v-9h-18zm27-189h-9v18h-18v-18h-9v18h-18v9h18v18h-18v9h18v18h-18v9h18v18h-18v9h18v18h-18v9h18v18h9v-18h18v18h9v-18h18v-9h-18v-18h18v-9h-18v-18h18v-9h-18v-18h18v-9h-18v-18h18v-9h-18v-18zm-9 126h-18v-18h18v18zm0-27h-18v-18h18v18zm0-27h-18v-18h18v18zm0-27h-18v-18h18v18z" fill="#245b49"/><path class="st3" d="M1827 981h18v9h-18zm54-243h18v9h-18zm-108-27h18v9h-18z"/><path class="st31" d="M1854 765h-135v9h126v135h27v18h-27v27h-18v9h18v27h9v-54h27v-36h-27z"/><path class="st31" d="M1881 711v-54h-54v-27h-90v27h-27v27h-27v27h-18v9h81v-9h-54v-18h27v-27h27v-27h72v27h54v72h-99v-45h18v27h9v-63h-36v27h-27v9h27v54h117v-27h18v45h-27v117h27v72h-27v54h-54v135h-27v27h-54v9h54v45h-72v-72h54v-9h-27V990h-9v153h-27v90h90v-81h27v-135h54v-54h27v-90h-27v-99h27v-63h-27zm-108-45h18v18h-18v-18z"/><path class="st31" d="M1800 981h27v9h-27zm-135-216h18v9h-18z"/><path class="st32" d="M1044 1170h-9v27H765v9h306v-9h-27zM900 927h90v9h-90zm189 270h279v9h-279z"/><path class="st32" d="M1206 1116v-81h-54v-27h-27v-27h-36v27h-54v108h-18v-27h-27v-72h27v-81h27v-63h-36v27h-18v-27h-90v27h-27v63h27v54h27v18h-27v36h27v45H765v63h9v-54h189v-9h-27v-45h18v27h9v-36h-54v-18h27v-36h-27v-54h-27v-45h27v-27h72v27h36v-27h18v45h-27v81h-54v36h9v-27h18v108h54v27h54v27h9v-36h-54v-126h45v27h9v-54h18v54h9v-27h18v27h54v18h-27v9h27v45h-54v36h108v27h9v-36h-108v-18h207v54h9v-63h-162zm-198 0h-18v-18h18v18z"/><path class="st32" d="M1125 1179v-81h27v-36h-63v63h27v54h9zm-27-63v-45h45v18h-27v27h-18z"/><path class="st33" d="M450 1044V927h-36v81h-18V873h-36v135h-45v-27h-54v-27h-27v-54H90v90h108v54h81v72h-45v-54H117v54H99v-27H72V981H36v54H9v117h297v18h-54v36h81v72h-18v-54h-63v63h27v54h144v-9H288v-45h45v27h9v-117h-81v-18h81v-9h-27v-27H18v-99h27v-54h18v99H36v9h54v27h36v-54h99v18h-54v27h-27v9h63v-27h18v27h63v-90h-81v-18h81v-9h-81v-27H99v-72h99v18h-81v36h90v-54h18v54h27v27h54v27h63V882h18v135h36v-81h18v99H306v63h36v-9h-27v-45h18v27h108v45H306v9h27v27h27v27h90v-9h-81v-27h-27v-18h108v-63H342v-18h108zm-144 234h-45v-45h45v45zm-108-162h-18v-18h18v18zm0-162h-72v-18h72v18z"/><path class="st33" d="M360 1089h63v9h-63zm0 225h81v27h9v-36h-81v-18h81v-9h-90zm0-108v54h90v-9h-81v-45h81v-9h-90z"/></g></svg>